<svg width="14" height="16" viewBox="0 0 14 16" fill="none" xmlns="http://www.w3.org/2000/svg">
<path fill-rule="evenodd" clip-rule="evenodd" d="M10.4307 0.597813L10.4315 1.18085C12.574 1.34877 13.9892 2.80871 13.9915 5.04758L14 11.601C14.0031 14.042 12.4695 15.5439 10.0114 15.5478L4.00702 15.5555C1.56426 15.5587 0.011524 14.021 0.00845231 11.573L5.17203e-06 5.09656C-0.00306651 2.84291 1.3623 1.38686 3.5048 1.19018L3.50403 0.607142C3.50326 0.265091 3.75668 0.00777565 4.09456 0.00777565C4.43245 0.00699826 4.68586 0.263536 4.68663 0.605587L4.6874 1.14976L9.24886 1.14354L9.24809 0.599368C9.24732 0.257317 9.50073 0.000779151 9.83862 1.76205e-06C10.1688 -0.000775626 10.4299 0.255763 10.4307 0.597813ZM1.18336 5.33677L12.8097 5.32123V5.04914C12.7767 3.37776 11.9381 2.50086 10.433 2.37026L10.4337 2.96885C10.4337 3.30313 10.1734 3.56822 9.84321 3.56822C9.50532 3.56899 9.25114 3.30468 9.25114 2.9704L9.25037 2.34072L4.68892 2.34694L4.68969 2.97585C4.68969 3.3109 4.43704 3.57521 4.09915 3.57521C3.76127 3.57599 3.50709 3.31245 3.50709 2.9774L3.50632 2.37881C2.00887 2.52885 1.18028 3.40885 1.18259 5.09501L1.18336 5.33677ZM9.5195 8.87004V8.87859C9.52718 9.23619 9.81899 9.5075 10.173 9.49972C10.5186 9.49117 10.7942 9.19499 10.7866 8.83739C10.7704 8.49534 10.4932 8.21626 10.1484 8.21703C9.79518 8.22481 9.51873 8.51244 9.5195 8.87004ZM10.1547 12.3605C9.80141 12.3527 9.51651 12.0581 9.51574 11.7005C9.50807 11.3429 9.79143 11.0467 10.1447 11.0381H10.1524C10.5133 11.0381 10.8059 11.3328 10.8059 11.6981C10.8066 12.0635 10.5148 12.3597 10.1547 12.3605ZM6.35641 8.88252C6.37177 9.24012 6.66435 9.5192 7.01759 9.50365C7.36316 9.48733 7.63884 9.19192 7.62348 8.83432C7.61504 8.4845 7.33091 8.21241 6.98534 8.21319C6.6321 8.22874 6.35565 8.52492 6.35641 8.88252ZM7.02034 12.3256C6.66709 12.3411 6.37528 12.062 6.35915 11.7044C6.35915 11.3468 6.63484 11.0514 6.98808 11.0351C7.33365 11.0343 7.61855 11.3064 7.62623 11.6555C7.64235 12.0138 7.3659 12.3092 7.02034 12.3256ZM3.19225 8.9097C3.20761 9.2673 3.50018 9.54716 3.85343 9.53084C4.19899 9.51529 4.47468 9.2191 4.45855 8.86151C4.45087 8.51168 4.16674 8.23959 3.82041 8.24037C3.46716 8.25592 3.19148 8.5521 3.19225 8.9097ZM3.8565 12.3294C3.50325 12.3457 3.21144 12.0658 3.19532 11.7082C3.19455 11.3506 3.471 11.0545 3.82424 11.0389C4.16981 11.0381 4.45471 11.3102 4.46239 11.6601C4.47851 12.0176 4.20283 12.3138 3.8565 12.3294Z" fill="white"/>
</svg>
